<svg xmlns="http://www.w3.org/2000/svg" width="25" height="25" viewBox="0 0 25 25" fill="none">
	<g clip-path="url(#clip0_5_16664)">
	  <path d="M12.6904 2.5C7.17044 2.5 2.70044 6.98 2.70044 12.5C2.70044 18.02 7.17044 22.5 12.6904 22.5C18.2204 22.5 22.7004 18.02 22.7004 12.5C22.7004 6.98 18.2204 2.5 12.6904 2.5ZM12.7004 20.5C8.28044 20.5 4.70044 16.92 4.70044 12.5C4.70044 8.08 8.28044 4.5 12.7004 4.5C17.1204 4.5 20.7004 8.08 20.7004 12.5C20.7004 16.92 17.1204 20.5 12.7004 20.5ZM16.2004 11.5C17.0304 11.5 17.7004 10.83 17.7004 10C17.7004 9.17 17.0304 8.5 16.2004 8.5C15.3704 8.5 14.7004 9.17 14.7004 10C14.7004 10.83 15.3704 11.5 16.2004 11.5ZM9.20044 11.5C10.0304 11.5 10.7004 10.83 10.7004 10C10.7004 9.17 10.0304 8.5 9.20044 8.5C8.37044 8.5 7.70044 9.17 7.70044 10C7.70044 10.83 8.37044 11.5 9.20044 11.5ZM12.7004 18C15.0304 18 17.0104 16.54 17.8104 14.5H7.59044C8.39044 16.54 10.3704 18 12.7004 18Z" fill="#535350"/>
	</g>
	<defs>
	  <clipPath id="clip0_5_16664">
		<rect width="24" height="24" fill="white" transform="translate(0.700439 0.5)"/>
	  </clipPath>
	</defs>
  </svg>
